<svg width="20" height="15" viewBox="0 0 20 15" fill="none" xmlns="http://www.w3.org/2000/svg">
<path d="M18.0023 6.52301C18.2153 6.79098 18.3332 7.13912 18.3332 7.50009C18.3332 7.86107 18.2153 8.20921 18.0023 8.47718C16.6536 10.1251 13.5836 13.3334 9.99984 13.3334C6.4161 13.3334 3.34616 10.1251 1.99744 8.47718C1.78442 8.20921 1.6665 7.86107 1.6665 7.50009C1.6665 7.13912 1.78442 6.79098 1.99744 6.52301C3.34616 4.87509 6.4161 1.66675 9.99984 1.66675C13.5836 1.66675 16.6536 4.87509 18.0023 6.52301Z" stroke="#FFD11A" stroke-width="1.5" stroke-linecap="round" stroke-linejoin="round"/>
<path d="M10.0003 10.0925C11.4191 10.0925 12.5693 8.93181 12.5693 7.49997C12.5693 6.06814 11.4191 4.90741 10.0003 4.90741C8.58145 4.90741 7.43127 6.06814 7.43127 7.49997C7.43127 8.93181 8.58145 10.0925 10.0003 10.0925Z" stroke="#FFD11A" stroke-width="1.5" stroke-linecap="round" stroke-linejoin="round"/>
</svg>
