<?xml version="1.0" encoding="UTF-8"?>
<svg id="Logo" xmlns="http://www.w3.org/2000/svg" viewBox="0 0 500 275.74">
  <defs>
    <style>
      .cls-1 {
        fill: #fff;
        font-family: ZenDots-Regular, 'Zen Dots';
        font-size: 60px;
      }

      .cls-2 {
        fill: #f59a33;
      }
    </style>
  </defs>
  <g id="CUSTOM-group">
    <g>
      <path class="cls-2" d="M407.51,180.55h-43.38c-2.99,0-5.42-2.43-5.42-5.42s2.43-5.42,5.42-5.42h43.38c2.99,0,5.42,2.43,5.42,5.42s-2.43,5.42-5.42,5.42Z"/>
      <path class="cls-2" d="M429.56,82.94h-27.47v-27.84c0-8.97-7.3-16.26-16.27-16.26s-16.27,7.29-16.27,16.26v27.84h-16.27c-3.34,0-6.45,1.01-9.04,2.75-4.69-8.12-13.46-13.59-23.49-13.59l-250.22-.03c-3.04,0-5.5,2.46-5.5,5.5v108.54c0,3.04,2.46,5.5,5.5,5.5l250.22-.21c8.97,0,16.26,7.29,16.26,16.26s7.3,16.27,16.27,16.27h76.28c3,0,5.42-2.43,5.42-5.42V88.36c0-2.99-2.42-5.42-5.42-5.42ZM337.01,185.99c-4.53-3.42-10.17-5.44-16.26-5.44l-244.72.06v-97.54l244.72-.12c8.97,0,16.26,7.3,16.26,16.27v86.78ZM380.4,55.1c0-2.99,2.43-5.42,5.42-5.42s5.42,2.43,5.42,5.42v5.43h-10.84v-5.43ZM380.4,71.37h10.84v59.1l-5.42,10.84-5.42-10.84v-59.1ZM424.14,213.09h-70.86c-2.99,0-5.42-2.44-5.42-5.43s2.43-5.42,5.42-5.42h70.86v10.85ZM424.14,191.4h-70.86c-1.9,0-3.72.33-5.42.93v-93.12c0-2.99,2.43-5.42,5.42-5.42h16.27v37.96c0,.84.2,1.67.57,2.42l10.85,21.69c.92,1.84,2.79,3,4.85,3s3.93-1.16,4.85-3l10.84-21.69c.38-.75.58-1.58.58-2.42v-37.96h22.05v97.61Z"/>
    </g>
  </g>
  <text class="cls-1" transform="translate(96.96 154.36)"><tspan x="0" y="0">AIPen</tspan></text>
</svg>